<svg width="22" height="22" viewBox="0 0 22 22" fill="none" xmlns="http://www.w3.org/2000/svg">
<path fill-rule="evenodd" clip-rule="evenodd" d="M20.5684 1.39393C19.9826 0.808143 19.0329 0.808143 18.4471 1.39393L10.9188 8.92222L3.80642 1.80987C3.22063 1.22408 2.27088 1.22408 1.6851 1.80987C1.09931 2.39565 1.09931 3.3454 1.6851 3.93119L8.79745 11.0435L1.39393 18.4471C0.808143 19.0329 0.808143 19.9826 1.39393 20.5684C1.97972 21.1542 2.92946 21.1542 3.51525 20.5684L10.9188 13.1649L18.7382 20.9843C19.324 21.5701 20.2738 21.5701 20.8596 20.9843C21.4453 20.3985 21.4453 19.4488 20.8596 18.863L13.0401 11.0435L20.5684 3.51525C21.1542 2.92946 21.1542 1.97972 20.5684 1.39393Z" fill="white"/>
</svg>
